# xmcd
#
# Track frame offsets: 
#        182
#        17230
#        35907
#        51207
#        72480
#        88405
#        110332
#        126655
#        150982
#        170440
#        188977
#        207710
#        229657
#        244675
#        260875
#        281367
#        298852
#        319095
#
# Disc length: 4561 seconds
#
# Revision: 3
# Processed by: cddbd v1.5.2PL0 Copyright (c) Steve Scherf et al.
# Submitted via: ExactAudioCopy v1.3
#
DISCID=1e11cf12
DTITLE=Various Artist - Rap All Over - CD1
DYEAR=1996
DGENRE=Hip Hop
TTITLE0=Easy-E - Just Tah Let You Know (Ruthless ''G'' Radio Mix) 
TTITLE1=Skee-Lo - I Wish (Radio Edit)
TTITLE2=Cypress Hill - Throw Your Set In The Air (Album Version)
TTITLE3=KRS-One - MC's Act Like They Don't Know (DJ Premier Mix)
TTITLE4=Onyx - Last Dayz
TTITLE5=Bone Thugs-N-Harmony - 1st Of Tha Month (Radio Edit with Tré)
TTITLE6=Little Shawn - Dom Perignon
TTITLE7=Too Short - The Ghetto (Single Edit)
TTITLE8=Funkdoobiest - Dedicated (Album Version Edit)
TTITLE9=Junior M.A.F.I.A. - Player's Anthem
TTITLE10=Das EFX - Real Hip Hop
TTITLE11=Tone Lock feat. El Debarge - All Through The Night
TTITLE12=Da Brat - Fa All Y'All
TTITLE13=A Tribe Called Quest - Bonita Applebum
TTITLE14=Eric B. and Rakim - What's On Your Mind
TTITLE15=DJ Jazzy Jeff and The Fresh Prince - Summertime (Single Edit)
TTITLE16=DJ Quick - Summer Breeze
TTITLE17=Shaquille O'Neal - Biological Didn't Bother
EXTD=
EXTT0=
EXTT1=
EXTT2=
EXTT3=
EXTT4=
EXTT5=
EXTT6=
EXTT7=
EXTT8=
EXTT9=
EXTT10=
EXTT11=
EXTT12=
EXTT13=
EXTT14=
EXTT15=
EXTT16=
EXTT17=
PLAYORDER=
